<mxfile host="app.diagrams.net" modified="2023-04-01T15:02:35.336Z" agent="Mozilla/5.0 (Windows NT 10.0; Win64; x64) AppleWebKit/537.36 (KHTML, like Gecko) Chrome/110.0.0.0 YaBrowser/23.3.0.2246 Yowser/2.5 Safari/537.36" etag="WY_zy8WoY6GVYSdXryER" version="21.1.2" type="device">
  <diagram name="Страница 1" id="fyd6jfn-GOHzCJ48iFQQ">
    <mxGraphModel dx="940" dy="617" grid="1" gridSize="10" guides="1" tooltips="1" connect="1" arrows="1" fold="1" page="1" pageScale="1" pageWidth="827" pageHeight="1169" math="0" shadow="0">
      <root>
        <mxCell id="0" />
        <mxCell id="1" parent="0" />
        <mxCell id="VXD5CnRuD1ATFReqDmd1-39" style="edgeStyle=orthogonalEdgeStyle;rounded=0;orthogonalLoop=1;jettySize=auto;html=1;entryX=0.429;entryY=0;entryDx=0;entryDy=0;entryPerimeter=0;" edge="1" parent="1" source="VXD5CnRuD1ATFReqDmd1-8" target="VXD5CnRuD1ATFReqDmd1-21">
          <mxGeometry relative="1" as="geometry" />
        </mxCell>
        <mxCell id="VXD5CnRuD1ATFReqDmd1-52" style="edgeStyle=orthogonalEdgeStyle;rounded=0;orthogonalLoop=1;jettySize=auto;html=1;entryX=0;entryY=0.75;entryDx=0;entryDy=0;" edge="1" parent="1" source="VXD5CnRuD1ATFReqDmd1-8" target="VXD5CnRuD1ATFReqDmd1-47">
          <mxGeometry relative="1" as="geometry" />
        </mxCell>
        <mxCell id="VXD5CnRuD1ATFReqDmd1-8" value="запрос действия у пользователя" style="swimlane;whiteSpace=wrap;html=1;startSize=23;" vertex="1" parent="1">
          <mxGeometry x="230" y="30" width="260" height="310" as="geometry" />
        </mxCell>
        <mxCell id="VXD5CnRuD1ATFReqDmd1-9" value="Если выбрано &quot;1&quot; - вывод всех фигур в списке.&amp;nbsp;" style="text;strokeColor=none;fillColor=none;align=left;verticalAlign=middle;spacingLeft=4;spacingRight=4;overflow=hidden;points=[[0,0.5],[1,0.5]];portConstraint=eastwest;rotatable=0;whiteSpace=wrap;html=1;" vertex="1" parent="VXD5CnRuD1ATFReqDmd1-8">
          <mxGeometry x="30" y="40" width="200" height="40" as="geometry" />
        </mxCell>
        <mxCell id="VXD5CnRuD1ATFReqDmd1-18" value="Если выбрано &quot;5&quot; - вызов функции обновления файла с фигурами." style="text;strokeColor=none;fillColor=none;align=left;verticalAlign=middle;spacingLeft=4;spacingRight=4;overflow=hidden;points=[[0,0.5],[1,0.5]];portConstraint=eastwest;rotatable=0;whiteSpace=wrap;html=1;" vertex="1" parent="VXD5CnRuD1ATFReqDmd1-8">
          <mxGeometry x="30" y="230" width="200" height="50" as="geometry" />
        </mxCell>
        <mxCell id="VXD5CnRuD1ATFReqDmd1-17" value=" Если выбрано &quot;4&quot; - подсчет количества фигур каждого типа." style="text;strokeColor=none;fillColor=none;align=left;verticalAlign=middle;spacingLeft=4;spacingRight=4;overflow=hidden;points=[[0,0.5],[1,0.5]];portConstraint=eastwest;rotatable=0;whiteSpace=wrap;html=1;" vertex="1" parent="VXD5CnRuD1ATFReqDmd1-8">
          <mxGeometry x="30" y="180" width="200" height="40" as="geometry" />
        </mxCell>
        <mxCell id="VXD5CnRuD1ATFReqDmd1-16" value="Если выбрано &quot;3&quot; - подсчет периметра всех фигур." style="text;strokeColor=none;fillColor=none;align=left;verticalAlign=middle;spacingLeft=4;spacingRight=4;overflow=hidden;points=[[0,0.5],[1,0.5]];portConstraint=eastwest;rotatable=0;whiteSpace=wrap;html=1;" vertex="1" parent="VXD5CnRuD1ATFReqDmd1-8">
          <mxGeometry x="30" y="120" width="200" height="40" as="geometry" />
        </mxCell>
        <mxCell id="VXD5CnRuD1ATFReqDmd1-15" value="Если выбрано &quot;2&quot; - подсчет площади всех фигур. " style="text;strokeColor=none;fillColor=none;align=left;verticalAlign=middle;spacingLeft=4;spacingRight=4;overflow=hidden;points=[[0,0.5],[1,0.5]];portConstraint=eastwest;rotatable=0;whiteSpace=wrap;html=1;" vertex="1" parent="VXD5CnRuD1ATFReqDmd1-8">
          <mxGeometry x="30" y="80" width="200" height="40" as="geometry" />
        </mxCell>
        <mxCell id="VXD5CnRuD1ATFReqDmd1-35" style="edgeStyle=orthogonalEdgeStyle;rounded=0;orthogonalLoop=1;jettySize=auto;html=1;entryX=0.583;entryY=0.086;entryDx=0;entryDy=0;entryPerimeter=0;" edge="1" parent="1" source="VXD5CnRuD1ATFReqDmd1-21" target="VXD5CnRuD1ATFReqDmd1-30">
          <mxGeometry relative="1" as="geometry">
            <Array as="points">
              <mxPoint x="160" y="440" />
            </Array>
          </mxGeometry>
        </mxCell>
        <mxCell id="VXD5CnRuD1ATFReqDmd1-36" style="edgeStyle=orthogonalEdgeStyle;rounded=0;orthogonalLoop=1;jettySize=auto;html=1;entryX=0.5;entryY=0;entryDx=0;entryDy=0;" edge="1" parent="1" source="VXD5CnRuD1ATFReqDmd1-21" target="VXD5CnRuD1ATFReqDmd1-33">
          <mxGeometry relative="1" as="geometry" />
        </mxCell>
        <mxCell id="VXD5CnRuD1ATFReqDmd1-37" style="edgeStyle=orthogonalEdgeStyle;rounded=0;orthogonalLoop=1;jettySize=auto;html=1;entryX=0.37;entryY=0.011;entryDx=0;entryDy=0;entryPerimeter=0;" edge="1" parent="1" source="VXD5CnRuD1ATFReqDmd1-21" target="VXD5CnRuD1ATFReqDmd1-32">
          <mxGeometry relative="1" as="geometry" />
        </mxCell>
        <mxCell id="VXD5CnRuD1ATFReqDmd1-38" style="edgeStyle=orthogonalEdgeStyle;rounded=0;orthogonalLoop=1;jettySize=auto;html=1;" edge="1" parent="1" source="VXD5CnRuD1ATFReqDmd1-21" target="VXD5CnRuD1ATFReqDmd1-31">
          <mxGeometry relative="1" as="geometry" />
        </mxCell>
        <mxCell id="VXD5CnRuD1ATFReqDmd1-21" value="Interface Figure" style="swimlane;fontStyle=0;childLayout=stackLayout;horizontal=1;startSize=30;horizontalStack=0;resizeParent=1;resizeParentMax=0;resizeLast=0;collapsible=1;marginBottom=0;whiteSpace=wrap;html=1;" vertex="1" parent="1">
          <mxGeometry x="260" y="380" width="210" height="120" as="geometry" />
        </mxCell>
        <mxCell id="VXD5CnRuD1ATFReqDmd1-22" value="type" style="text;strokeColor=none;fillColor=none;align=left;verticalAlign=middle;spacingLeft=4;spacingRight=4;overflow=hidden;points=[[0,0.5],[1,0.5]];portConstraint=eastwest;rotatable=0;whiteSpace=wrap;html=1;" vertex="1" parent="VXD5CnRuD1ATFReqDmd1-21">
          <mxGeometry y="30" width="210" height="30" as="geometry" />
        </mxCell>
        <mxCell id="VXD5CnRuD1ATFReqDmd1-23" value="getArea" style="text;strokeColor=none;fillColor=none;align=left;verticalAlign=middle;spacingLeft=4;spacingRight=4;overflow=hidden;points=[[0,0.5],[1,0.5]];portConstraint=eastwest;rotatable=0;whiteSpace=wrap;html=1;" vertex="1" parent="VXD5CnRuD1ATFReqDmd1-21">
          <mxGeometry y="60" width="210" height="30" as="geometry" />
        </mxCell>
        <mxCell id="VXD5CnRuD1ATFReqDmd1-24" value="getPerimetr" style="text;strokeColor=none;fillColor=none;align=left;verticalAlign=middle;spacingLeft=4;spacingRight=4;overflow=hidden;points=[[0,0.5],[1,0.5]];portConstraint=eastwest;rotatable=0;whiteSpace=wrap;html=1;" vertex="1" parent="VXD5CnRuD1ATFReqDmd1-21">
          <mxGeometry y="90" width="210" height="30" as="geometry" />
        </mxCell>
        <mxCell id="VXD5CnRuD1ATFReqDmd1-43" style="edgeStyle=orthogonalEdgeStyle;rounded=0;orthogonalLoop=1;jettySize=auto;html=1;entryX=0;entryY=0.75;entryDx=0;entryDy=0;" edge="1" parent="1" source="VXD5CnRuD1ATFReqDmd1-30" target="VXD5CnRuD1ATFReqDmd1-41">
          <mxGeometry relative="1" as="geometry" />
        </mxCell>
        <mxCell id="VXD5CnRuD1ATFReqDmd1-30" value="class Circle" style="rounded=0;whiteSpace=wrap;html=1;" vertex="1" parent="1">
          <mxGeometry x="90" y="567" width="120" height="35" as="geometry" />
        </mxCell>
        <mxCell id="VXD5CnRuD1ATFReqDmd1-46" style="edgeStyle=orthogonalEdgeStyle;rounded=0;orthogonalLoop=1;jettySize=auto;html=1;entryX=1;entryY=0.75;entryDx=0;entryDy=0;" edge="1" parent="1" source="VXD5CnRuD1ATFReqDmd1-31" target="VXD5CnRuD1ATFReqDmd1-41">
          <mxGeometry relative="1" as="geometry" />
        </mxCell>
        <mxCell id="VXD5CnRuD1ATFReqDmd1-31" value="class Treangle" style="rounded=0;whiteSpace=wrap;html=1;" vertex="1" parent="1">
          <mxGeometry x="540" y="567" width="120" height="35" as="geometry" />
        </mxCell>
        <mxCell id="VXD5CnRuD1ATFReqDmd1-45" style="edgeStyle=orthogonalEdgeStyle;rounded=0;orthogonalLoop=1;jettySize=auto;html=1;" edge="1" parent="1" source="VXD5CnRuD1ATFReqDmd1-32" target="VXD5CnRuD1ATFReqDmd1-41">
          <mxGeometry relative="1" as="geometry" />
        </mxCell>
        <mxCell id="VXD5CnRuD1ATFReqDmd1-32" value="class Square" style="rounded=0;whiteSpace=wrap;html=1;" vertex="1" parent="1">
          <mxGeometry x="390" y="567" width="120" height="35" as="geometry" />
        </mxCell>
        <mxCell id="VXD5CnRuD1ATFReqDmd1-44" style="edgeStyle=orthogonalEdgeStyle;rounded=0;orthogonalLoop=1;jettySize=auto;html=1;entryX=0.198;entryY=0.003;entryDx=0;entryDy=0;entryPerimeter=0;" edge="1" parent="1" source="VXD5CnRuD1ATFReqDmd1-33" target="VXD5CnRuD1ATFReqDmd1-41">
          <mxGeometry relative="1" as="geometry" />
        </mxCell>
        <mxCell id="VXD5CnRuD1ATFReqDmd1-33" value="class Rectangle" style="rounded=0;whiteSpace=wrap;html=1;" vertex="1" parent="1">
          <mxGeometry x="240" y="567" width="120" height="35" as="geometry" />
        </mxCell>
        <mxCell id="VXD5CnRuD1ATFReqDmd1-48" style="edgeStyle=orthogonalEdgeStyle;rounded=0;orthogonalLoop=1;jettySize=auto;html=1;entryX=0.5;entryY=0;entryDx=0;entryDy=0;" edge="1" parent="1" source="VXD5CnRuD1ATFReqDmd1-41" target="VXD5CnRuD1ATFReqDmd1-47">
          <mxGeometry relative="1" as="geometry" />
        </mxCell>
        <mxCell id="VXD5CnRuD1ATFReqDmd1-41" value="main.ts&lt;br style=&quot;border-color: var(--border-color);&quot;&gt;Main logic and write files json" style="rounded=0;whiteSpace=wrap;html=1;" vertex="1" parent="1">
          <mxGeometry x="260" y="660" width="190" height="60" as="geometry" />
        </mxCell>
        <mxCell id="VXD5CnRuD1ATFReqDmd1-53" style="edgeStyle=orthogonalEdgeStyle;rounded=0;orthogonalLoop=1;jettySize=auto;html=1;entryX=0;entryY=1;entryDx=0;entryDy=0;" edge="1" parent="1" source="VXD5CnRuD1ATFReqDmd1-47" target="VXD5CnRuD1ATFReqDmd1-8">
          <mxGeometry relative="1" as="geometry" />
        </mxCell>
        <mxCell id="VXD5CnRuD1ATFReqDmd1-47" value="&lt;div style=&quot;font-family: Consolas, &amp;quot;Courier New&amp;quot;, monospace; font-size: 14px; line-height: 19px;&quot;&gt;&lt;span style=&quot;background-color: rgb(255, 255, 255);&quot;&gt;&lt;font color=&quot;#232611&quot;&gt;output.ts&lt;/font&gt;&lt;/span&gt;&lt;/div&gt;&lt;div style=&quot;font-family: Consolas, &amp;quot;Courier New&amp;quot;, monospace; font-size: 14px; line-height: 19px;&quot;&gt;&lt;span style=&quot;background-color: rgb(255, 255, 255);&quot;&gt;&lt;font color=&quot;#232611&quot;&gt;&amp;nbsp;Главный класс где происходит вычесление площади различных геометрических фигур&lt;/font&gt;&lt;/span&gt;&lt;/div&gt;" style="rounded=0;whiteSpace=wrap;html=1;" vertex="1" parent="1">
          <mxGeometry x="200" y="760" width="320" height="70" as="geometry" />
        </mxCell>
      </root>
    </mxGraphModel>
  </diagram>
</mxfile>
